<?xml version="1.0" encoding="utf-8"?>
<!-- Generator: Adobe Illustrator 20.1.0, SVG Export Plug-In . SVG Version: 6.00 Build 0)  -->
<svg version="1.1" id="レイヤー_1" xmlns="http://www.w3.org/2000/svg" xmlns:xlink="http://www.w3.org/1999/xlink" x="0px"
	 y="0px" viewBox="0 0 425.2 162.9" style="enable-background:new 0 0 425.2 162.9;" xml:space="preserve">
<style type="text/css">
	.st0{fill:#3E4457;}
	.st1{fill:#2A918E;}
	.st2{fill:#3377A8;}
	.st3{fill:#D1D464;}
	.st4{fill:#BF5762;}
	.st5{fill:#7B57A1;}
</style>
<g>
	<path class="st0" d="M33.8,144.3c-0.1-0.2-0.2-0.3-0.4-0.3h0c-0.2,0-0.3,0.1-0.4,0.3l-7.6,17.2c-0.1,0.1,0,0.3,0,0.4
		c0.1,0.1,0.2,0.2,0.4,0.2h2c0.2,0,0.4-0.1,0.4-0.3l1.9-4.4h6.4l1.8,4.4c0.1,0.2,0.2,0.3,0.4,0.3h2c0.2,0,0.3-0.1,0.4-0.2
		c0.1-0.1,0.1-0.3,0-0.4L33.8,144.3z M31.2,154.8l2.1-4.9l2.1,4.9H31.2z M54.9,151.8l-1.1-0.5c-1-0.5-2.3-1-2.3-2.1
		c0-1.2,1-2.1,2.3-2.1c1.1,0,1.8,0.4,2.4,1.6c0.1,0.1,0.2,0.2,0.3,0.2c0.1,0,0.3,0,0.4-0.1l1.5-0.9c0.2-0.1,0.3-0.4,0.2-0.6
		c-1-1.8-2.7-2.8-4.7-2.8c-2.9,0-5.1,2-5.1,4.6c0,2.7,1.9,3.7,3.9,4.6l1,0.4l0.1,0c1.4,0.7,2.7,1.2,2.7,2.8c0,1.5-1.3,2.7-2.9,2.7
		c-1.4,0-2.6-1.1-2.8-2.7c0-0.1-0.1-0.2-0.2-0.3c-0.1-0.1-0.2-0.1-0.4-0.1l-1.8,0.5c-0.2,0.1-0.4,0.3-0.3,0.5
		c0.6,2.8,2.8,4.6,5.6,4.6c3.2,0,5.6-2.4,5.6-5.5C59.1,153.9,57,152.8,54.9,151.8z M86.2,159.5h-4.1v-14.3c0-0.3-0.2-0.5-0.5-0.5
		h-1.8c-0.3,0-0.5,0.2-0.5,0.5v16.4c0,0.3,0.2,0.5,0.5,0.5h6.4c0.3,0,0.5-0.2,0.5-0.5V160C86.6,159.7,86.4,159.5,86.2,159.5z
		 M103.7,144.8h-8.5c-0.3,0-0.5,0.2-0.5,0.5v16.4c0,0.3,0.2,0.5,0.5,0.5h8.5c0.3,0,0.5-0.2,0.5-0.5V160c0-0.3-0.2-0.5-0.5-0.5h-6.2
		V154h6c0.3,0,0.5-0.2,0.5-0.5v-1.7c0-0.3-0.2-0.5-0.5-0.5h-6v-4h6.2c0.3,0,0.5-0.2,0.5-0.5v-1.7C104.2,145,104,144.8,103.7,144.8z
		 M119.2,144.3c-0.1-0.2-0.2-0.3-0.4-0.3h0c-0.2,0-0.3,0.1-0.4,0.3l-7.6,17.2c-0.1,0.1,0,0.3,0,0.4c0.1,0.1,0.2,0.2,0.4,0.2h2
		c0.2,0,0.4-0.1,0.4-0.3l1.9-4.4h6.4l1.8,4.4c0.1,0.2,0.2,0.3,0.4,0.3h2c0.2,0,0.3-0.1,0.4-0.2c0.1-0.1,0.1-0.3,0-0.4L119.2,144.3z
		 M116.6,154.8l2.1-4.9l2.1,4.9H116.6z M143.7,146.9c-2-1.7-4.2-2.1-6.7-2.1h-3.1c-0.3,0-0.5,0.2-0.5,0.5v16.4
		c0,0.3,0.2,0.5,0.5,0.5h3.1c2.7,0,4.8-0.4,6.8-2.2c1.9-1.7,2.8-3.9,2.8-6.5C146.6,150.8,145.6,148.5,143.7,146.9z M141.9,157.9
		c-1.4,1.3-3,1.6-4.9,1.6h-0.9v-12.1h0.9c1.9,0,3.4,0.3,4.8,1.5c1.3,1.1,2,2.8,2,4.6C143.8,155.2,143.1,156.8,141.9,157.9z
		 M157.7,144.8h-1.8c-0.3,0-0.5,0.2-0.5,0.5v16.4c0,0.3,0.2,0.5,0.5,0.5h1.8c0.3,0,0.5-0.2,0.5-0.5v-16.4
		C158.2,145,158,144.8,157.7,144.8z M182.6,144.8h-1.8c-0.3,0-0.5,0.2-0.5,0.5v11.6l-12-12.6c-0.1-0.1-0.3-0.2-0.5-0.1
		c-0.2,0.1-0.3,0.2-0.3,0.4v17.1c0,0.3,0.2,0.5,0.5,0.5h1.8c0.3,0,0.5-0.2,0.5-0.5v-11.5l12,12.6c0.1,0.1,0.2,0.1,0.3,0.1
		c0.1,0,0.1,0,0.2,0c0.2-0.1,0.3-0.2,0.3-0.4v-17.2C183.1,145,182.9,144.8,182.6,144.8z M207.9,152.9H201c-0.3,0-0.5,0.2-0.5,0.5
		v1.7c0,0.3,0.2,0.5,0.5,0.5h4.4c-0.3,2.5-2.9,4.2-5.4,4.2c-1.5,0-3.1-0.8-4.3-2c-1.2-1.2-1.8-2.7-1.8-4.3c0-3.5,2.8-6.4,6.3-6.4
		c2.1,0,3.9,1,5.3,2.9c0.1,0.1,0.2,0.2,0.3,0.2c0.1,0,0.3,0,0.4-0.1l1.3-1.2c0.2-0.2,0.2-0.4,0.1-0.6c-1.9-2.4-4.4-3.7-7.3-3.7
		c-5,0-9,4-9,9c0,4.8,4.1,8.9,8.9,8.9c2.5,0,4.9-1.1,6.4-2.9c1.6-1.8,1.9-3.8,1.8-6.1C208.3,153.1,208.1,152.9,207.9,152.9z
		 M241.2,144.8h-1.8c-0.3,0-0.5,0.2-0.5,0.5v6.2h-7.5v-6.2c0-0.3-0.2-0.5-0.5-0.5h-1.8c-0.3,0-0.5,0.2-0.5,0.5v16.4
		c0,0.3,0.2,0.5,0.5,0.5h1.8c0.3,0,0.5-0.2,0.5-0.5v-7.6h7.5v7.6c0,0.3,0.2,0.5,0.5,0.5h1.8c0.3,0,0.5-0.2,0.5-0.5v-16.4
		C241.6,145,241.4,144.8,241.2,144.8z M257.2,144.3c-0.1-0.2-0.2-0.3-0.4-0.3h0c-0.2,0-0.3,0.1-0.4,0.3l-7.6,17.2
		c-0.1,0.1,0,0.3,0,0.4c0.1,0.1,0.2,0.2,0.4,0.2h2c0.2,0,0.4-0.1,0.4-0.3l1.9-4.4h6.4l1.8,4.4c0.1,0.2,0.2,0.3,0.4,0.3h2
		c0.2,0,0.3-0.1,0.4-0.2c0.1-0.1,0.1-0.3,0-0.4L257.2,144.3z M254.6,154.8l2.1-4.9l2.1,4.9H254.6z M276.7,154.6
		c2.3-0.5,3.8-2.4,3.8-4.9c0-3.3-2.2-5-6.5-5h-2.4c-0.3,0-0.5,0.2-0.5,0.5v16.4c0,0.3,0.2,0.5,0.5,0.5h1.8c0.3,0,0.5-0.2,0.5-0.5
		v-6.4l4.6,6.7c0.1,0.1,0.2,0.2,0.4,0.2h2.2c0.2,0,0.3-0.1,0.4-0.2c0.1-0.2,0.1-0.3,0-0.5L276.7,154.6z M273.9,152.4v-5h0.1
		c2.5,0,3.7,0.4,3.7,2.5c0,1.8-1.1,2.5-3.7,2.5H273.9z M305,144.2c0-0.2-0.2-0.3-0.4-0.4c-0.2,0-0.4,0.1-0.5,0.3l-5.6,12.8
		l-5.6-12.8c-0.1-0.2-0.3-0.3-0.5-0.3c-0.2,0-0.4,0.2-0.4,0.4l-3.3,17.4c0,0.1,0,0.3,0.1,0.4c0.1,0.1,0.2,0.2,0.4,0.2h1.9
		c0.2,0,0.4-0.2,0.5-0.4l1.9-9.8l4.7,10.5c0.1,0.2,0.2,0.3,0.4,0.3c0,0,0,0,0,0c0.2,0,0.3-0.1,0.4-0.3l4.7-10.5l1.9,9.8
		c0,0.2,0.2,0.4,0.5,0.4h1.9c0.1,0,0.3-0.1,0.4-0.2c0.1-0.1,0.1-0.2,0.1-0.4L305,144.2z M324.2,144.5c-5,0-9,4-9,9
		c0,4.9,4.1,8.9,9,8.9c5,0,9-4,9-8.9C333.3,148.5,329.2,144.5,324.2,144.5z M324.2,159.8c-3.5,0-6.3-2.8-6.3-6.3
		c0-3.5,2.8-6.3,6.3-6.3s6.3,2.8,6.3,6.3C330.5,156.9,327.7,159.8,324.2,159.8z M356.2,144.8h-1.8c-0.3,0-0.5,0.2-0.5,0.5v11.6
		l-12-12.6c-0.1-0.1-0.3-0.2-0.5-0.1c-0.2,0.1-0.3,0.2-0.3,0.4v17.1c0,0.3,0.2,0.5,0.5,0.5h1.8c0.3,0,0.5-0.2,0.5-0.5v-11.5l12,12.6
		c0.1,0.1,0.2,0.1,0.3,0.1c0.1,0,0.1,0,0.2,0c0.2-0.1,0.3-0.2,0.3-0.4v-17.2C356.6,145,356.4,144.8,356.2,144.8z M368.5,144.8h-1.8
		c-0.3,0-0.5,0.2-0.5,0.5v16.4c0,0.3,0.2,0.5,0.5,0.5h1.8c0.3,0,0.5-0.2,0.5-0.5v-16.4C368.9,145,368.7,144.8,368.5,144.8z
		 M389,144.8h-10.9c-0.3,0-0.5,0.2-0.5,0.5v1.7c0,0.3,0.2,0.5,0.5,0.5h7l-8.5,14c-0.1,0.1-0.1,0.3,0,0.5c0.1,0.1,0.2,0.2,0.4,0.2
		h11.8c0.3,0,0.5-0.2,0.5-0.5V160c0-0.3-0.2-0.5-0.5-0.5h-7.9l8.6-14c0.1-0.1,0.1-0.3,0-0.5C389.3,144.9,389.2,144.8,389,144.8z
		 M406.2,144.8h-8.5c-0.3,0-0.5,0.2-0.5,0.5v16.4c0,0.3,0.2,0.5,0.5,0.5h8.5c0.3,0,0.5-0.2,0.5-0.5V160c0-0.3-0.2-0.5-0.5-0.5H400
		V154h6c0.3,0,0.5-0.2,0.5-0.5v-1.7c0-0.3-0.2-0.5-0.5-0.5h-6v-4h6.2c0.3,0,0.5-0.2,0.5-0.5v-1.7C406.7,145,406.5,144.8,406.2,144.8
		z M425.1,161.4l-4.8-6.8c2.3-0.5,3.8-2.4,3.8-4.9c0-3.3-2.2-5-6.5-5h-2.4c-0.3,0-0.5,0.2-0.5,0.5v16.4c0,0.3,0.2,0.5,0.5,0.5h1.8
		c0.3,0,0.5-0.2,0.5-0.5v-6.4l4.6,6.7c0.1,0.1,0.2,0.2,0.4,0.2h2.2c0.2,0,0.3-0.1,0.4-0.2C425.2,161.7,425.2,161.5,425.1,161.4z
		 M417.5,152.4v-5h0.1c2.5,0,3.7,0.4,3.7,2.5c0,1.8-1.1,2.5-3.7,2.5H417.5z"/>
	<path class="st0" d="M284.3,33c0-2-1.6-3.5-3.6-3.5h-18.3c-2,0-3.6,1.6-3.6,3.5l0,94.6h56v-21.6h-30.5L284.3,33z M418.9,29.7h-18.3
		c-2,0-3.6,1.6-3.6,3.5l0,94.3h25.4l0-94.3C422.4,31.3,420.8,29.7,418.9,29.7z M360.2,64V33.3c0-2-1.6-3.5-3.6-3.5h-18.3
		c-2,0-3.6,1.6-3.6,3.5v48.4l0,0v45.9h25.4V87.5h27.8v-20h-24.3C361.8,67.5,360.2,65.9,360.2,64z M199.9,29.6h-20.7
		c-2,0-4.1,1.5-4.8,3.3l-36.5,94.7h27.3l6.8-17h25.9l-7-19.6h-8.5c-2,0-3-1.5-2.4-3.4c0,0,9.4-27.8,9.5-27.8l24,67.8h27.1
		l-35.8-94.7C204.1,31.1,201.9,29.6,199.9,29.6z"/>
	<g>
		<polygon class="st1" points="90,16.6 67.1,0 28.1,28.4 36.8,55.2 		"/>
		<polygon class="st2" points="22.8,32.2 0,48.7 14.9,94.6 43.1,94.5 		"/>
		<polygon class="st3" points="16.9,100.8 25.6,127.6 73.9,127.6 82.5,100.8 		"/>
		<polygon class="st4" points="80.5,127.6 108.6,127.6 123.5,81.7 100.6,65.2 		"/>
		<path class="st5" d="M95.3,20.5L72.5,37.1l53,38.4l8.7-26.8L95.3,20.5z"/>
	</g>
</g>
</svg>
